<svg viewBox="0 0 19 11" xmlns="http://www.w3.org/2000/svg"><style>path{stroke-linecap:round;stroke:none;fill:#f8fcff;stroke:#f8fcff}.c10-logo_one{stroke:none}.c10-logo_moon-left{stroke:none;fill:#1b55a6}.c10-logo_moon-right{stroke:none;fill:#395a88}.c10-logo_circle{fill:none;stroke-width:.3px}</style><path class="c10-logo_one" d="M6.521.736v9.438H4.675V2.975l-1.807.687V2.134L6.325.736h.196Z" /><path class="c10-logo_moon-left" d="M14.581 9.735c.433 0 .852-.062 1.248-.176a4.92 4.92 0 0 1-2.426.636 4.912 4.912 0 0 1-3.607-1.567 4.83 4.83 0 0 1-1.301-3.303c0-1.275.493-2.435 1.301-3.302A4.91 4.91 0 0 1 13.403.455c.883 0 1.714.232 2.43.639a4.457 4.457 0 0 0-1.252-.178 4.446 4.446 0 0 0-3.93 2.352 4.351 4.351 0 0 0-.513 2.057c0 .743.185 1.443.513 2.058a4.446 4.446 0 0 0 3.93 2.352" /><path class="c10-logo_moon-right" d="M18.433 5.325c0 .629-.154 1.223-.427 1.746a3.834 3.834 0 0 1-3.405 2.056 3.838 3.838 0 0 1-2.437-.868c.386.163.812.254 1.259.254 1.774 0 3.212-1.428 3.212-3.188 0-1.761-1.438-3.188-3.212-3.188-.447 0-.873.091-1.259.254a3.833 3.833 0 0 1 2.437-.868c1.483 0 2.768.835 3.405 2.056.273.522.427 1.116.427 1.746" /><path class="c10-logo_circle" d="M8.898 8.747a4.826 4.826 0 0 1-3.456 1.447C2.776 10.194.615 8.05.615 5.405c0-2.646 2.161-4.79 4.827-4.79 1.355 0 2.58.554 3.456 1.447" /></svg>
