<svg viewBox="0 0 24 24" xmlns="http://www.w3.org/2000/svg"><style>path{stroke-linecap:round;stroke:none;fill:#f8fcff;stroke:#f8fcff}.c10-logo_one{stroke:none}.c10-logo_moon-left{stroke:none;fill:#1b55a6}.c10-logo_moon-right{stroke:none;fill:#395a88}.c10-logo_circle{fill:none;stroke-width:.3px}.c10-logo_text path{stroke:none}</style><g class="c10-logo_logo"><path class="c10-logo_one" d="M8.997,10.231l0,9.438l-1.846,0l0,-7.198l-1.807,0.686l0,-1.528l3.457,-1.398l0.196,0Z" /><path class="c10-logo_moon-left" d="M17.058,19.23c0.432,-0 0.851,-0.062 1.247,-0.176c-0.715,0.405 -1.543,0.636 -2.426,0.636c-1.426,0 -2.71,-0.603 -3.607,-1.567c-0.808,-0.868 -1.301,-2.027 -1.301,-3.302c-0,-1.276 0.493,-2.435 1.301,-3.303c0.897,-0.965 2.181,-1.568 3.607,-1.568c0.884,-0 1.714,0.233 2.43,0.639c-0.397,-0.116 -0.817,-0.178 -1.251,-0.178c-1.705,0 -3.186,0.953 -3.931,2.352c-0.328,0.615 -0.513,1.315 -0.513,2.058c0,0.743 0.185,1.443 0.513,2.057c0.745,1.399 2.226,2.352 3.931,2.352" /><path class="c10-logo_moon-right" d="M20.909,14.82c0,0.629 -0.154,1.224 -0.427,1.746c-0.637,1.221 -1.922,2.056 -3.404,2.056c-0.926,0 -1.775,-0.325 -2.438,-0.868c0.387,0.163 0.812,0.254 1.259,0.254c1.774,0 3.213,-1.427 3.213,-3.188c-0,-1.761 -1.439,-3.188 -3.213,-3.188c-0.447,0 -0.872,0.091 -1.259,0.254c0.663,-0.542 1.512,-0.868 2.438,-0.868c1.482,0 2.767,0.835 3.404,2.056c0.273,0.523 0.427,1.116 0.427,1.746" /><path class="c10-logo_circle" d="M11.375,18.243c-0.877,0.892 -2.102,1.447 -3.457,1.447c-2.666,-0 -4.827,-2.145 -4.827,-4.79c-0,-2.645 2.161,-4.79 4.827,-4.79c1.355,0 2.58,0.554 3.457,1.447" /></g><g class="c10-logo_text"><path d="M21.724,4.957l-0.879,-0l0,2.956l-0.72,0l-0,-2.956l-0.864,-0l-0,-0.599l2.463,0l0,0.599Z" /><path d="M17.295,6.663l0,1.25l-0.717,0l-0,-3.555l1.211,0c0.351,0 0.631,0.11 0.841,0.328c0.209,0.218 0.313,0.501 0.313,0.849c0,0.349 -0.103,0.624 -0.31,0.825c-0.206,0.202 -0.493,0.303 -0.859,0.303l-0.479,0Zm0,-0.598l0.494,0c0.136,0 0.242,-0.045 0.317,-0.134c0.075,-0.09 0.112,-0.22 0.112,-0.391c0,-0.177 -0.038,-0.318 -0.114,-0.423c-0.077,-0.105 -0.18,-0.159 -0.308,-0.16l-0.501,-0l0,1.108Z" /><path d="M15.96,6.375l-1.118,0l-0,0.942l1.323,0l0,0.596l-2.041,0l0,-3.555l2.036,0l0,0.599l-1.318,-0l-0,0.839l1.118,0l-0,0.579Z" /><path d="M13.682,6.729c-0.018,0.405 -0.132,0.712 -0.342,0.92c-0.21,0.209 -0.506,0.313 -0.888,0.313c-0.402,-0 -0.71,-0.132 -0.924,-0.397c-0.214,-0.264 -0.321,-0.641 -0.321,-1.131l-0,-0.598c-0,-0.489 0.11,-0.865 0.332,-1.13c0.221,-0.264 0.529,-0.396 0.922,-0.396c0.388,-0 0.682,0.108 0.883,0.324c0.201,0.217 0.315,0.528 0.343,0.933l-0.72,-0c-0.007,-0.251 -0.045,-0.424 -0.116,-0.519c-0.071,-0.095 -0.201,-0.143 -0.39,-0.143c-0.192,0 -0.328,0.067 -0.407,0.202c-0.08,0.134 -0.122,0.355 -0.127,0.663l-0,0.671c-0,0.353 0.039,0.596 0.118,0.728c0.079,0.131 0.215,0.197 0.407,0.197c0.188,0 0.319,-0.046 0.39,-0.138c0.072,-0.092 0.113,-0.258 0.122,-0.499l0.718,0Z" /><path d="M10.696,7.913l-0.717,0l-1.05,-2.331l-0,2.331l-0.718,0l-0,-3.555l0.718,0l1.052,2.334l-0,-2.334l0.715,0l0,3.555Z" /><path d="M7.696,6.456c-0,0.477 -0.113,0.847 -0.338,1.11c-0.226,0.264 -0.539,0.396 -0.939,0.396c-0.399,-0 -0.712,-0.131 -0.94,-0.392c-0.228,-0.261 -0.343,-0.627 -0.347,-1.097l0,-0.608c0,-0.488 0.113,-0.87 0.34,-1.144c0.226,-0.274 0.54,-0.411 0.942,-0.411c0.396,-0 0.707,0.134 0.935,0.404c0.228,0.269 0.344,0.647 0.347,1.134l-0,0.608Zm-0.72,-0.596c-0,-0.321 -0.046,-0.559 -0.137,-0.715c-0.091,-0.157 -0.233,-0.235 -0.425,-0.235c-0.19,0 -0.331,0.076 -0.422,0.226c-0.091,0.151 -0.139,0.38 -0.142,0.687l0,0.633c0,0.311 0.046,0.54 0.139,0.687c0.093,0.147 0.236,0.221 0.43,0.221c0.187,-0 0.326,-0.072 0.417,-0.216c0.092,-0.144 0.138,-0.368 0.14,-0.67l-0,-0.618Z" /><path d="M4.751,6.729c-0.017,0.405 -0.131,0.712 -0.341,0.92c-0.21,0.209 -0.507,0.313 -0.889,0.313c-0.402,-0 -0.71,-0.132 -0.924,-0.397c-0.214,-0.264 -0.321,-0.641 -0.321,-1.131l-0,-0.598c-0,-0.489 0.111,-0.865 0.332,-1.13c0.221,-0.264 0.529,-0.396 0.923,-0.396c0.387,-0 0.681,0.108 0.882,0.324c0.201,0.217 0.316,0.528 0.343,0.933l-0.72,-0c-0.006,-0.251 -0.045,-0.424 -0.116,-0.519c-0.071,-0.095 -0.2,-0.143 -0.389,-0.143c-0.192,0 -0.328,0.067 -0.408,0.202c-0.08,0.134 -0.122,0.355 -0.127,0.663l0,0.671c0,0.353 0.04,0.596 0.119,0.728c0.078,0.131 0.214,0.197 0.406,0.197c0.189,0 0.319,-0.046 0.391,-0.138c0.071,-0.092 0.112,-0.258 0.122,-0.499l0.717,0Z" /></g></svg>
